<svg width="30" height="30" viewBox="0 0 30 30" fill="none" xmlns="http://www.w3.org/2000/svg">
<path d="M27.4558 13.459L22.1823 18.0094L23.789 24.8145C23.8776 25.1839 23.8548 25.5713 23.7234 25.9277C23.592 26.2842 23.3579 26.5937 23.0506 26.8171C22.7434 27.0406 22.3768 27.168 21.9972 27.1832C21.6176 27.1985 21.242 27.1009 20.9179 26.9027L14.9999 23.2606L9.07844 26.9027C8.75433 27.0997 8.37919 27.1964 8.00025 27.1806C7.6213 27.1648 7.2555 27.0372 6.94891 26.814C6.64232 26.5907 6.40865 26.2817 6.27732 25.9259C6.14598 25.5701 6.12286 25.1834 6.21087 24.8145L7.82337 18.0094L2.54993 13.459C2.26317 13.2112 2.05578 12.8843 1.95366 12.5193C1.85154 12.1543 1.85921 11.7673 1.97573 11.4067C2.09224 11.046 2.31243 10.7276 2.60879 10.4914C2.90515 10.2551 3.26455 10.1114 3.64211 10.0781L10.5562 9.52032L13.2234 3.06563C13.3677 2.71386 13.6134 2.41296 13.9293 2.20119C14.2451 1.98942 14.6167 1.87634 14.997 1.87634C15.3772 1.87634 15.7489 1.98942 16.0647 2.20119C16.3805 2.41296 16.6263 2.71386 16.7706 3.06563L19.4366 9.52032L26.3507 10.0781C26.729 10.1101 27.0895 10.2531 27.3869 10.489C27.6844 10.7249 27.9055 11.0434 28.0228 11.4045C28.14 11.7656 28.1481 12.1533 28.046 12.519C27.9439 12.8846 27.7361 13.212 27.4488 13.4602L27.4558 13.459Z" fill="#DA7F16"/>
</svg>
